<?xml version="1.0" encoding="utf-8"?>
<!-- Generator: Adobe Illustrator 17.1.0, SVG Export Plug-In . SVG Version: 6.00 Build 0)  -->
<!DOCTYPE svg PUBLIC "-//W3C//DTD SVG 1.1//EN" "http://www.w3.org/Graphics/SVG/1.1/DTD/svg11.dtd">
<svg version="1.1" id="Layer_1" xmlns="http://www.w3.org/2000/svg" xmlns:xlink="http://www.w3.org/1999/xlink" x="0px" y="0px"
	 viewBox="0 0 250.458 21.625" enable-background="new 0 0 250.458 21.625" xml:space="preserve">
<g>
	<path fill="#FFFFFF" d="M52.516,0.004v21.648H48.65V8.323l-2.536,13.329h-2.66L40.981,8.323h-0.062v13.329h-3.866V0.004h5.226
		l2.474,12.958h0.062L47.32,0.004H52.516z"/>
	<path fill="#FFFFFF" d="M75.904,21.652h-3.866V0.004h3.866V21.652z"/>
	<path fill="#FFFFFF" d="M103.497,10.828l4.731,10.824h-3.711l-3.154-7.144l-2.907,7.144h-3.742l4.762-10.824L94.715,0.004h3.742
		l3.123,7.175l2.938-7.175h3.711L103.497,10.828z"/>
	<path fill="#FFFFFF" d="M163.633,3.066h-3.989v18.586h-3.866V3.066h-3.958V0.004h11.813V3.066z"/>
	<path fill="#FFFFFF" d="M186.99,16.611h-3.742l-0.742,5.041h-3.649l4.454-21.648h3.865l4.453,21.648h-3.865L186.99,16.611z
		 M186.372,13.488l-1.176-7.762h-0.092l-1.207,7.762H186.372z"/>
	<path fill="#FFFFFF" d="M216.347,12.962c-0.248,0-1.825-0.031-2.072-0.031v8.721h-3.834V0.004h6.03c3.68,0,5.443,2.721,5.443,6.185
		C221.913,10.674,219.254,12.962,216.347,12.962z M215.048,9.653c2.505,0,3.216-0.309,3.216-3.463c0-1.732-0.402-3.093-1.948-3.093
		h-2.041v6.556H215.048z"/>
	<path fill="#FFFFFF" d="M244.589,3.097v5.319h3.927v3.093h-3.927v7.051h5.906v3.093h-9.771V0.004h9.339v3.092H244.589z"/>
	<path fill="#FFFFFF" d="M127.04,9.365h7.514v3.866h-7.514V9.365z"/>
</g>
<g>
	<path fill="#FFFFFF" d="M16.928,11.257l0.667-0.397c0.054-0.032,0.093-0.007,0.086,0.055c-0.424,3.933-3.641,7.042-7.622,7.297
		c-0.063,0.004-0.113-0.044-0.113-0.107l-0.004-7.509c0-0.063,0.052-0.114,0.114-0.114h0.81c0.063,0,0.113-0.051,0.113-0.114V9.741
		c0-0.063-0.051-0.114-0.113-0.114h-0.811c-0.063,0-0.113-0.052-0.113-0.114L9.941,8.629c0-0.063,0.051-0.114,0.114-0.114h0.863
		c0.063,0,0.114-0.052,0.114-0.114V7.774c0-0.063-0.051-0.113-0.114-0.113h-0.863c-0.063,0-0.114-0.052-0.114-0.115L9.939,5.59
		c0-0.063,0.05-0.124,0.112-0.139c1.108-0.267,1.933-1.266,1.933-2.454c0-1.392-1.133-2.525-2.524-2.525
		c-1.392,0-2.525,1.133-2.525,2.525c0,1.225,0.879,2.247,2.038,2.475c0.062,0.012,0.112,0.07,0.112,0.133l0.001,1.94
		c0,0.063-0.051,0.115-0.114,0.115H8.105c-0.063,0-0.114,0.051-0.114,0.113v0.627c0,0.063,0.051,0.114,0.114,0.114h0.868
		c0.063,0,0.114,0.051,0.114,0.114v0.884c0,0.063-0.051,0.114-0.113,0.114H8.052c-0.063,0-0.114,0.052-0.114,0.114v0.626
		c0,0.063,0.051,0.114,0.114,0.114h0.921c0.063,0,0.113,0.052,0.113,0.114l0.005,7.507c0,0.063-0.051,0.112-0.113,0.107
		c-3.969-0.264-7.174-3.364-7.602-7.286c-0.006-0.063,0.032-0.087,0.086-0.054l0.72,0.436c0.053,0.033,0.124,0.016,0.157-0.037
		l0.325-0.536c0.032-0.054,0.015-0.124-0.039-0.157L0.571,9.329C0.516,9.297,0.473,9.321,0.473,9.384v0.645
		c0,4.808,3.767,8.752,8.505,9.037c0.063,0.004,0.114,0.058,0.114,0.121l0.001,1.843c0,0.063,0.051,0.114,0.114,0.114l0.627-0.001
		c0.063,0,0.113-0.05,0.113-0.113l-0.001-1.842c0-0.063,0.051-0.117,0.113-0.12c4.747-0.276,8.524-4.225,8.524-9.038V9.391
		c0-0.063-0.044-0.088-0.097-0.055l-1.995,1.186c-0.054,0.032-0.072,0.103-0.04,0.156l0.321,0.539
		C16.804,11.271,16.874,11.289,16.928,11.257z M7.788,2.997c0-0.921,0.75-1.67,1.671-1.67c0.921,0,1.67,0.749,1.67,1.67
		c0,0.922-0.749,1.67-1.67,1.67C8.538,4.668,7.788,3.919,7.788,2.997z"/>
	<path fill="#FFFFFF" d="M9.207,21.616L9.207,21.616c-0.324,0-0.587-0.263-0.587-0.586l-0.001-1.517C3.763,19.054,0,14.95,0,10.029
		V8.911l0.525-0.069c0.101,0,0.201,0.029,0.291,0.084l2.053,1.246c0.275,0.166,0.364,0.526,0.199,0.802l-0.326,0.539
		c-0.111,0.178-0.297,0.282-0.501,0.282H2.108l-0.12-0.06c0.712,3.178,3.358,5.585,6.631,5.967l-0.004-6.749H8.052
		c-0.323,0-0.586-0.263-0.586-0.586V9.741c0-0.323,0.263-0.586,0.586-0.586h0.562V8.988H8.105c-0.323,0-0.586-0.263-0.586-0.586
		V7.774c0-0.323,0.263-0.586,0.586-0.586h0.509L8.612,5.87c-1.26-0.37-2.15-1.538-2.15-2.872c0-1.652,1.344-2.997,2.997-2.997
		s2.997,1.344,2.997,2.997c0,1.302-0.829,2.436-2.045,2.841l0.001,1.35h0.505c0.323,0,0.586,0.263,0.586,0.586v0.627
		c0,0.323-0.263,0.586-0.586,0.586h-0.504l0,0.168h0.452c0.323,0,0.586,0.263,0.586,0.586v0.626c0,0.323-0.263,0.586-0.586,0.586
		h-0.452l0.004,6.754c3.279-0.366,5.943-2.784,6.653-5.985l-0.012,0.007l-0.189,0.016c-0.207,0-0.401-0.111-0.505-0.29l-0.418-0.701
		l0.034-0.273c0.037-0.151,0.135-0.284,0.268-0.363l2.108-1.253L18.53,8.85c0.295,0,0.525,0.238,0.525,0.542v0.638
		c0,4.929-3.767,9.033-8.637,9.484l0,1.516c0,0.323-0.263,0.586-0.586,0.586L9.207,21.616z M9.198,18.641
		c0.146,0.062,0.26,0.177,0.32,0.32c0.057-0.136,0.163-0.248,0.297-0.311l-0.313-0.289C9.439,18.488,9.331,18.589,9.198,18.641z
		 M0.945,10.109c0.001,0.182,0.009,0.362,0.022,0.541l0.212-0.254l0.22-0.012L0.945,10.109z M17.664,10.374h0.184l0.171,0.169
		c0.028,0.03,0.051,0.063,0.07,0.099c0.012-0.177,0.02-0.355,0.021-0.533L17.664,10.374z M9.198,10.054
		c0.142,0.059,0.256,0.174,0.315,0.317c0.059-0.142,0.173-0.257,0.316-0.317C9.687,9.995,9.573,9.881,9.514,9.738
		C9.454,9.881,9.34,9.995,9.198,10.054z M9.197,8.088C9.34,8.147,9.454,8.262,9.514,8.404c0.059-0.142,0.173-0.256,0.315-0.316
		C9.687,8.029,9.572,7.915,9.513,7.772C9.453,7.915,9.34,8.029,9.197,8.088z M9.333,5.136C9.409,5.199,9.47,5.279,9.509,5.37
		c0.036-0.093,0.095-0.176,0.17-0.242C9.565,5.14,9.448,5.143,9.333,5.136z M9.459,1.8C8.798,1.8,8.26,2.337,8.26,2.997
		c0,0.661,0.538,1.198,1.199,1.198c0.661,0,1.198-0.538,1.198-1.198C10.657,2.337,10.12,1.8,9.459,1.8z"/>
</g>
</svg>
